Coordinates
version=1
nRows=6
nColumns=34
inDegrees=yes

Units are S.I. units (second, meters, Newtons, ...)
If the header above contains a line with 'inDegrees', this indicates whether rotational values are in degrees (yes) or radians (no).

endheader
time	pelvis_tilt	pelvis_list	pelvis_rotation	pelvis_tx	pelvis_ty	pelvis_tz	hip_flexion_r	hip_adduction_r	hip_rotation_r	knee_angle_r	ankle_angle_r	subtalar_angle_r	mtp_angle_r	hip_flexion_l	hip_adduction_l	hip_rotation_l	knee_angle_l	ankle_angle_l	subtalar_angle_l	mtp_angle_l	lumbar_extension	lumbar_bending	lumbar_rotation	arm_flex_r	arm_add_r	arm_rot_r	elbow_flex_r	pro_sup_r	arm_flex_l	arm_add_l	arm_rot_l	elbow_flex_l	pro_sup_l
      0.00000000	      8.63595975	     -5.71313357	     -0.40483371	     -6.12293192	      0.95945461	      0.36618621	    -11.61695458	      9.30787739	     -8.36451385	     16.97344470	     -1.26371008	    -31.45369655	      0.00000000	     16.52446762	     -6.78934811	      5.01187347	     27.72728609	      2.54856051	    -12.79805865	      0.00000000	    -10.21793200	      1.53274390	     -2.97466887	     46.92786140	    -10.10865852	     14.97945385	    141.85652569	    101.97903739	      2.53260548	     -0.94381135	     -7.05376246	     25.65693940	     81.00290383
      0.01666670	      8.72994996	     -3.38988202	      0.29361515	     -6.12496650	      0.96343439	      0.36615247	     -9.98835983	      7.67685640	     -9.55970469	     17.70060248	     -0.82894399	    -32.41328377	      0.00000000	     17.38348790	     -2.54991367	      6.17070556	     30.80867239	      1.32512790	    -15.73602234	      0.00000000	    -11.78556014	     -0.22284359	     -2.35946982	     45.63225614	     -7.80970431	     14.30937787	    148.97066759	    101.97092594	      5.42962613	     -0.64909034	    -14.45188188	     21.57703435	     79.12083802
      0.03333330	      8.26189074	     -1.87707020	      0.75755684	     -6.12425718	      0.96478480	      0.36708021	     -9.89321905	      6.32973954	    -11.14773707	     16.50561630	     -0.08068020	    -31.91865506	      0.00000000	     17.52914393	     -0.49113179	      6.05377932	     30.59885172	      0.22958543	    -16.15095389	      0.00000000	    -11.18355144	     -2.12212839	     -2.02756379	     44.88102654	     -7.06826487	     12.11872341	    150.00035077	    102.86964289	      6.39365661	     -0.53056273	    -22.98166882	     20.35472877	     76.96926196
      0.05000000	      8.79159211	     -1.48776098	      1.23432593	     -6.12449498	      0.96613632	      0.36696989	    -10.98581734	      6.05066755	    -11.75596297	     15.55941949	      0.38544978	    -31.07811280	      0.00000000	     16.76504696	      0.20883188	      6.75904105	     30.69860010	     -0.99580942	    -17.45435758	      0.00000000	    -12.02612373	     -2.20660912	     -2.33354972	     45.11966813	     -6.47750810	     12.81507772	    150.00035077	    103.69936842	      6.70108756	     -0.63502855	    -25.13380844	     20.72797098	     76.89650089
      0.06666670	      9.13855293	     -1.30158791	      1.66996970	     -6.12607927	      0.96835781	      0.36711824	    -11.79107412	      6.12490435	    -11.94036390	     14.69711703	      1.10942534	    -30.32033232	      0.00000000	     16.28445404	      0.65023731	      7.54035473	     30.55648557	     -2.57606338	    -19.10663014	      0.00000000	    -12.58860658	     -2.44932669	     -2.38308969	     44.73693584	     -6.65508359	     11.85821225	    150.00035077	    105.04561278	      7.38826375	     -0.33455919	    -27.91264071	     20.95472339	     77.01344487
      0.08333330	      9.47801232	     -1.32120404	      1.93593102	     -6.12443353	      0.96880871	      0.36647374	    -12.60695441	      6.27433510	    -11.78129343	     14.07742944	      0.93945101	    -29.75504838	      0.00000000	     15.94188754	      0.78072264	      7.98832399	     30.55826862	     -3.13002483	    -19.25325975	      0.00000000	    -12.86790169	     -2.36698059	     -1.99486542	     44.40150606	     -6.99707137	     11.62666196	    150.00035077	    105.54816264	      8.22382388	     -0.00457477	    -28.79151559	     21.11706503	     77.06555338
